mtllib material.mtl
o Default
v -0.5 1 0.5 1 1 1
v 0.5 1 -0.5 1 1 1
v -0.5 1 -0.5 1 1 1
v 0.5 1 0.5 1 1 1
v 0.5 0 0.5 1 1 1
v 0.5 0 -0.5 1 1 1
v -0.5 0 -0.5 1 1 1
v -0.5 0 0.5 1 1 1
vt 0.1181434616446495 0.6581196784973145
vt 0.13502109050750732 0.692307710647583
vt 0.1181434616446495 0.692307710647583
vt 0.1181434616446495 0.6581196784973145
vt 0.13502109050750732 0.6581196784973145
vt 0.13502109050750732 0.692307710647583
vt 0.08438818901777267 0.5897436141967773
vt 0.10126582533121109 0.6239316463470459
vt 0.08438818901777267 0.6239316463470459
vt 0.08438818901777267 0.5897436141967773
vt 0.10126582533121109 0.5897436141967773
vt 0.10126582533121109 0.6239316463470459
vt 0.08438818901777267 0.5897436141967773
vt 0.10126582533121109 0.6239316463470459
vt 0.08438818901777267 0.6239316463470459
vt 0.08438818901777267 0.5897436141967773
vt 0.10126582533121109 0.5897436141967773
vt 0.10126582533121109 0.6239316463470459
vt 0.08438818901777267 0.5897436141967773
vt 0.10126582533121109 0.6239316463470459
vt 0.08438818901777267 0.6239316463470459
vt 0.08438818901777267 0.5897436141967773
vt 0.10126582533121109 0.5897436141967773
vt 0.10126582533121109 0.6239316463470459
vt 0.1181434616446495 0.5897436141967773
vt 0.13502109050750732 0.6239316463470459
vt 0.1181434616446495 0.6239316463470459
vt 0.1181434616446495 0.5897436141967773
vt 0.13502109050750732 0.5897436141967773
vt 0.13502109050750732 0.6239316463470459
vn 0 1 0
vn 0 1 0
vn 0 1 0
vn 0 1 0
vn 0 1 0
vn 0 1 0
vn 1 0 0
vn 1 0 0
vn 1 0 0
vn 1 0 0
vn 1 0 0
vn 1 0 0
vn 0 0 -1
vn 0 0 -1
vn 0 0 -1
vn 0 0 -1
vn 0 0 -1
vn 0 0 -1
vn -1 0 0
vn -1 0 0
vn -1 0 0
vn -1 0 0
vn -1 0 0
vn -1 0 0
vn 0 0 1
vn 0 0 1
vn 0 0 1
vn 0 0 1
vn 0 0 1
vn 0 0 1
g Enemy Tower
usemtl 0
f 1/1/1 2/2/2 3/3/3
f 1/4/4 4/5/5 2/6/6
f 5/7/7 2/8/8 4/9/9
f 5/10/10 6/11/11 2/12/12
f 6/13/13 3/14/14 2/15/15
f 6/16/16 7/17/17 3/18/18
f 7/19/19 1/20/20 3/21/21
f 7/22/22 8/23/23 1/24/24
f 8/25/25 4/26/26 1/27/27
f 8/28/28 5/29/29 4/30/30
