mtllib material.mtl
o Default
v -0.5 1.25 0.5 1 1 1
v 0.5 1.25 0.5 1 1 1
v 0.5 1.25 -0.5 1 1 1
v -0.5 1.25 -0.5 1 1 1
v -0.5 0.5 0.5 1 1 1
v 0.5 0.5 0.5 1 1 1
v -0.5 0.5 -0.5 1 1 1
v 0.5 0.5 -0.5 1 1 1
v 0.25 0 0.25 1 1 1
v 0.25 0 -0.25 1 1 1
v 0.25 0.5 -0.25 1 1 1
v 0.25 0.5 0.25 1 1 1
v -0.25 0 0.25 1 1 1
v -0.25 0.5 0.25 1 1 1
v -0.25 0 -0.25 1 1 1
v -0.25 0.5 -0.25 1 1 1
vt 0.19409282505512238 0.752136766910553
vt 0.18565401434898376 0.752136766910553
vt 0.18565401434898376 0.7606837749481201
vt 0.19409282505512238 0.752136766910553
vt 0.18565401434898376 0.7606837749481201
vt 0.19409282505512238 0.7606837749481201
vt 0.19409282505512238 0.7350427508354187
vt 0.18565401434898376 0.7350427508354187
vt 0.18565401434898376 0.7606837749481201
vt 0.19409282505512238 0.7350427508354187
vt 0.18565401434898376 0.7606837749481201
vt 0.19409282505512238 0.7606837749481201
vt 0.19409282505512238 0.7350427508354187
vt 0.18565401434898376 0.7350427508354187
vt 0.18565401434898376 0.7606837749481201
vt 0.19409282505512238 0.7350427508354187
vt 0.18565401434898376 0.7606837749481201
vt 0.19409282505512238 0.7606837749481201
vt 0.19409282505512238 0.7350427508354187
vt 0.18565401434898376 0.7350427508354187
vt 0.18565401434898376 0.7606837749481201
vt 0.19409282505512238 0.7350427508354187
vt 0.18565401434898376 0.7606837749481201
vt 0.19409282505512238 0.7606837749481201
vt 0.20253165066242218 0.7264957427978516
vt 0.19409282505512238 0.7264957427978516
vt 0.19409282505512238 0.7435897588729858
vt 0.20253165066242218 0.7264957427978516
vt 0.19409282505512238 0.7435897588729858
vt 0.20253165066242218 0.7435897588729858
vt 0.20253165066242218 0.7264957427978516
vt 0.19409282505512238 0.7264957427978516
vt 0.19409282505512238 0.7435897588729858
vt 0.20253165066242218 0.7264957427978516
vt 0.19409282505512238 0.7435897588729858
vt 0.20253165066242218 0.7435897588729858
vt 0.20253165066242218 0.7264957427978516
vt 0.19409282505512238 0.7264957427978516
vt 0.19409282505512238 0.7435897588729858
vt 0.20253165066242218 0.7264957427978516
vt 0.19409282505512238 0.7435897588729858
vt 0.20253165066242218 0.7435897588729858
vt 0.20253165066242218 0.7264957427978516
vt 0.19409282505512238 0.7264957427978516
vt 0.19409282505512238 0.7435897588729858
vt 0.20253165066242218 0.7264957427978516
vt 0.19409282505512238 0.7435897588729858
vt 0.20253165066242218 0.7435897588729858
vt 0.19409282505512238 0.7350427508354187
vt 0.18565401434898376 0.7350427508354187
vt 0.18565401434898376 0.7606837749481201
vt 0.19409282505512238 0.7350427508354187
vt 0.18565401434898376 0.7606837749481201
vt 0.19409282505512238 0.7606837749481201
vn 0 1 0
vn 0 1 0
vn 0 1 0
vn 0 1 0
vn 0 1 0
vn 0 1 0
vn 0 0 1
vn 0 0 1
vn 0 0 1
vn 0 0 1
vn 0 0 1
vn 0 0 1
vn -1 0 0
vn -1 0 0
vn -1 0 0
vn -1 0 0
vn -1 0 0
vn -1 0 0
vn 1 0 0
vn 1 0 0
vn 1 0 0
vn 1 0 0
vn 1 0 0
vn 1 0 0
vn 1 0 0
vn 1 0 0
vn 1 0 0
vn 1 0 0
vn 1 0 0
vn 1 0 0
vn 0 0 1
vn 0 0 1
vn 0 0 1
vn 0 0 1
vn 0 0 1
vn 0 0 1
vn 0 0 -1
vn 0 0 -1
vn 0 0 -1
vn 0 0 -1
vn 0 0 -1
vn 0 0 -1
vn -1 0 0
vn -1 0 0
vn -1 0 0
vn -1 0 0
vn -1 0 0
vn -1 0 0
vn 0 0 -1
vn 0 0 -1
vn 0 0 -1
vn 0 0 -1
vn 0 0 -1
vn 0 0 -1
g Tree
usemtl 0
f 1/1/1 2/2/2 3/3/3
f 1/4/4 3/5/5 4/6/6
f 5/7/7 6/8/8 2/9/9
f 5/10/10 2/11/11 1/12/12
f 7/13/13 5/14/14 1/15/15
f 7/16/16 1/17/17 4/18/18
f 6/19/19 8/20/20 3/21/21
f 6/22/22 3/23/23 2/24/24
f 9/25/25 10/26/26 11/27/27
f 9/28/28 11/29/29 12/30/30
f 13/31/31 9/32/32 12/33/33
f 13/34/34 12/35/35 14/36/36
f 10/37/37 15/38/38 16/39/39
f 10/40/40 16/41/41 11/42/42
f 15/43/43 13/44/44 14/45/45
f 15/46/46 14/47/47 16/48/48
f 8/49/49 7/50/50 4/51/51
f 8/52/52 4/53/53 3/54/54
