mtllib material.mtl
o Default
v 10.625 -1 0.5 1 1 1
v 10.625 -1 0.125 1 1 1
v 10.625 -0.625 0.125 1 1 1
v 10.625 -0.625 0.5 1 1 1
v 10.125 -1 0.125 1 1 1
v 9.75 -1 0.125 1 1 1
v 9.75 -0.625 0.125 1 1 1
v 10.125 -0.625 0.125 1 1 1
v 9.75 -1 0.5 1 1 1
v 10.125 -1 0.5 1 1 1
v 10.125 -0.625 0.5 1 1 1
v 9.75 -0.625 0.5 1 1 1
v 9.625 -1 0.5 1 1 1
v 9.75 -0.75 0.5 1 1 1
v 9.625 -0.75 0.5 1 1 1
v 9.75 -1 0.375 1 1 1
v 9.625 -1 0.375 1 1 1
v 9.625 -0.75 0.375 1 1 1
v 9.75 -0.75 0.375 1 1 1
v 10.125 -0.75 0.375 1 1 1
v 10.125 -0.75 0.5 1 1 1
v 10.25 -0.75 0.5 1 1 1
v 10.25 -0.75 0.375 1 1 1
v 10.25 -1 0.375 1 1 1
v 10.125 -1 0.375 1 1 1
v 10.25 -1 0.5 1 1 1
v 10.25 -0.625 0.125 1 1 1
v 10.25 -0.625 0.5 1 1 1
v 10.25 -1 0.125 1 1 1
vt 0.48945146799087524 0.807692289352417
vt 0.4957805871963501 0.807692289352417
vt 0.4957805871963501 0.7948718070983887
vt 0.48945146799087524 0.807692289352417
vt 0.4957805871963501 0.7948718070983887
vt 0.48945146799087524 0.7948718070983887
vt 0.48945146799087524 0.807692289352417
vt 0.4957805871963501 0.807692289352417
vt 0.4957805871963501 0.7948718070983887
vt 0.48945146799087524 0.807692289352417
vt 0.4957805871963501 0.7948718070983887
vt 0.48945146799087524 0.7948718070983887
vt 0.48945146799087524 0.807692289352417
vt 0.4957805871963501 0.807692289352417
vt 0.4957805871963501 0.7948718070983887
vt 0.48945146799087524 0.807692289352417
vt 0.4957805871963501 0.7948718070983887
vt 0.48945146799087524 0.7948718070983887
vt 0.48945146799087524 0.807692289352417
vt 0.4957805871963501 0.807692289352417
vt 0.4957805871963501 0.7948718070983887
vt 0.48945146799087524 0.807692289352417
vt 0.4957805871963501 0.7948718070983887
vt 0.48945146799087524 0.7948718070983887
vt 0.48945146799087524 0.807692289352417
vt 0.4957805871963501 0.807692289352417
vt 0.4957805871963501 0.7948718070983887
vt 0.48945146799087524 0.807692289352417
vt 0.4957805871963501 0.7948718070983887
vt 0.48945146799087524 0.7948718070983887
vt 0.48945146799087524 0.8290598392486572
vt 0.4957805871963501 0.8290598392486572
vt 0.4957805871963501 0.8162392973899841
vt 0.48945146799087524 0.8290598392486572
vt 0.4957805871963501 0.8162392973899841
vt 0.48945146799087524 0.8162392973899841
vt 0.4957805871963501 0.7948718070983887
vt 0.49367088079452515 0.7948718070983887
vt 0.49367088079452515 0.8034188151359558
vt 0.4957805871963501 0.7948718070983887
vt 0.49367088079452515 0.8034188151359558
vt 0.4957805871963501 0.8034188151359558
vt 0.4957805871963501 0.7948718070983887
vt 0.49367088079452515 0.7948718070983887
vt 0.49367088079452515 0.8034188151359558
vt 0.4957805871963501 0.7948718070983887
vt 0.49367088079452515 0.8034188151359558
vt 0.4957805871963501 0.8034188151359558
vt 0.4957805871963501 0.7948718070983887
vt 0.49367088079452515 0.7948718070983887
vt 0.49367088079452515 0.7991452813148499
vt 0.4957805871963501 0.7948718070983887
vt 0.49367088079452515 0.7991452813148499
vt 0.4957805871963501 0.7991452813148499
vt 0.4957805871963501 0.7948718070983887
vt 0.49367088079452515 0.7948718070983887
vt 0.49367088079452515 0.7991452813148499
vt 0.4957805871963501 0.7948718070983887
vt 0.49367088079452515 0.7991452813148499
vt 0.4957805871963501 0.7991452813148499
vt 0.4957805871963501 0.7948718070983887
vt 0.49367088079452515 0.7948718070983887
vt 0.49367088079452515 0.8034188151359558
vt 0.4957805871963501 0.7948718070983887
vt 0.49367088079452515 0.8034188151359558
vt 0.4957805871963501 0.8034188151359558
vt 0.4957805871963501 0.7948718070983887
vt 0.49367088079452515 0.7948718070983887
vt 0.49367088079452515 0.8034188151359558
vt 0.4957805871963501 0.7948718070983887
vt 0.49367088079452515 0.8034188151359558
vt 0.4957805871963501 0.8034188151359558
vt 0.4957805871963501 0.7948718070983887
vt 0.49367088079452515 0.7948718070983887
vt 0.49367088079452515 0.8034188151359558
vt 0.4957805871963501 0.7948718070983887
vt 0.49367088079452515 0.8034188151359558
vt 0.4957805871963501 0.8034188151359558
vt 0.48945146799087524 0.8290598392486572
vt 0.4957805871963501 0.8290598392486572
vt 0.4957805871963501 0.8162392973899841
vt 0.48945146799087524 0.8290598392486572
vt 0.4957805871963501 0.8162392973899841
vt 0.48945146799087524 0.8162392973899841
vt 0.48945146799087524 0.807692289352417
vt 0.4957805871963501 0.807692289352417
vt 0.4957805871963501 0.7948718070983887
vt 0.48945146799087524 0.807692289352417
vt 0.4957805871963501 0.7948718070983887
vt 0.48945146799087524 0.7948718070983887
vt 0.48945146799087524 0.807692289352417
vt 0.4957805871963501 0.807692289352417
vt 0.4957805871963501 0.7948718070983887
vt 0.48945146799087524 0.807692289352417
vt 0.4957805871963501 0.7948718070983887
vt 0.48945146799087524 0.7948718070983887
vt 0.48945146799087524 0.807692289352417
vt 0.4957805871963501 0.807692289352417
vt 0.4957805871963501 0.7948718070983887
vt 0.48945146799087524 0.807692289352417
vt 0.4957805871963501 0.7948718070983887
vt 0.48945146799087524 0.7948718070983887
vt 0.4957805871963501 0.7948718070983887
vt 0.49367088079452515 0.7948718070983887
vt 0.49367088079452515 0.8034188151359558
vt 0.4957805871963501 0.7948718070983887
vt 0.49367088079452515 0.8034188151359558
vt 0.4957805871963501 0.8034188151359558
vn 1 0 0
vn 1 0 0
vn 1 0 0
vn 1 0 0
vn 1 0 0
vn 1 0 0
vn 0 0 -1
vn 0 0 -1
vn 0 0 -1
vn 0 0 -1
vn 0 0 -1
vn 0 0 -1
vn 0 0 1
vn 0 0 1
vn 0 0 1
vn 0 0 1
vn 0 0 1
vn 0 0 1
vn 1 0 0
vn 1 0 0
vn 1 0 0
vn 1 0 0
vn 1 0 0
vn 1 0 0
vn -1 0 0
vn -1 0 0
vn -1 0 0
vn -1 0 0
vn -1 0 0
vn -1 0 0
vn 0 1 0
vn 0 1 0
vn 0 1 0
vn 0 1 0
vn 0 1 0
vn 0 1 0
vn 0 0 1
vn 0 0 1
vn 0 0 1
vn 0 0 1
vn 0 0 1
vn 0 0 1
vn 0 0 -1
vn 0 0 -1
vn 0 0 -1
vn 0 0 -1
vn 0 0 -1
vn 0 0 -1
vn 0 1 0
vn 0 1 0
vn 0 1 0
vn 0 1 0
vn 0 1 0
vn 0 1 0
vn 0 1 0
vn 0 1 0
vn 0 1 0
vn 0 1 0
vn 0 1 0
vn 0 1 0
vn 0 0 -1
vn 0 0 -1
vn 0 0 -1
vn 0 0 -1
vn 0 0 -1
vn 0 0 -1
vn -1 0 0
vn -1 0 0
vn -1 0 0
vn -1 0 0
vn -1 0 0
vn -1 0 0
vn 0 0 1
vn 0 0 1
vn 0 0 1
vn 0 0 1
vn 0 0 1
vn 0 0 1
vn 0 1 0
vn 0 1 0
vn 0 1 0
vn 0 1 0
vn 0 1 0
vn 0 1 0
vn -1 0 0
vn -1 0 0
vn -1 0 0
vn -1 0 0
vn -1 0 0
vn -1 0 0
vn 0 0 -1
vn 0 0 -1
vn 0 0 -1
vn 0 0 -1
vn 0 0 -1
vn 0 0 -1
vn 0 0 1
vn 0 0 1
vn 0 0 1
vn 0 0 1
vn 0 0 1
vn 0 0 1
vn -1 0 0
vn -1 0 0
vn -1 0 0
vn -1 0 0
vn -1 0 0
vn -1 0 0
g Wall_Topper
usemtl 0
f 1/1/1 2/2/2 3/3/3
f 1/4/4 3/5/5 4/6/6
f 5/7/7 6/8/8 7/9/9
f 5/10/10 7/11/11 8/12/12
f 9/13/13 10/14/14 11/15/15
f 9/16/16 11/17/17 12/18/18
f 10/19/19 5/20/20 8/21/21
f 10/22/22 8/23/23 11/24/24
f 6/25/25 9/26/26 12/27/27
f 6/28/28 12/29/29 7/30/30
f 7/31/31 12/32/32 11/33/33
f 7/34/34 11/35/35 8/36/36
f 13/37/37 9/38/38 14/39/39
f 13/40/40 14/41/41 15/42/42
f 16/43/43 17/44/44 18/45/45
f 16/46/46 18/47/47 19/48/48
f 18/49/49 15/50/50 14/51/51
f 18/52/52 14/53/53 19/54/54
f 20/55/55 21/56/56 22/57/57
f 20/58/58 22/59/59 23/60/60
f 24/61/61 25/62/62 20/63/63
f 24/64/64 20/65/65 23/66/66
f 25/67/67 10/68/68 21/69/69
f 25/70/70 21/71/71 20/72/72
f 10/73/73 26/74/74 22/75/75
f 10/76/76 22/77/77 21/78/78
f 27/79/79 28/80/80 4/81/81
f 27/82/82 4/83/83 3/84/84
f 29/85/85 26/86/86 28/87/87
f 29/88/88 28/89/89 27/90/90
f 2/91/91 29/92/92 27/93/93
f 2/94/94 27/95/95 3/96/96
f 26/97/97 1/98/98 4/99/99
f 26/100/100 4/101/101 28/102/102
f 17/103/103 13/104/104 15/105/105
f 17/106/106 15/107/107 18/108/108
